# xmcd
#
# Track frame offsets: 
#        150
#        14479
#        40956
#        62377
#        83094
#        123231
#        152583
#        163810
#        186206
#        204082
#        230997
#        238483
#        256071
#        272436
#
# Disc length: 3954 seconds
#
# Revision: 0
# Processed by: cddbd v1.5.2PL0 Copyright (c) Steve Scherf et al.
# Submitted via: ExactAudioCopy v0.99pb5
#
DISCID=b60f700e
DTITLE=Antek Krupa - Amela
DYEAR=2012
DGENRE=Blues
TTITLE0=01.Amela
TTITLE1=02.Camden town
TTITLE2=03.Song dla goñki
TTITLE3=04.Nie zaznasz szczescia
TTITLE4=05.Przepraszam
TTITLE5=06.Ostatni blues
TTITLE6=07.Dziurawe kieszenie
TTITLE7=08.Z Paryza w samotnosc
TTITLE8=09.Popatrz chmurom prosto w oczy
TTITLE9=10.Summertime
TTITLE10=11.Amela (Coda)
TTITLE11=12.Ca³y ten jazz
TTITLE12=13.Another man
TTITLE13=14.Stary cz³owiek
EXTD=
EXTT0=
EXTT1=
EXTT2=
EXTT3=
EXTT4=
EXTT5=
EXTT6=
EXTT7=
EXTT8=
EXTT9=
EXTT10=
EXTT11=
EXTT12=
EXTT13=
PLAYORDER=
